<svg width="182px" height="182px" viewBox="0 0 182 182" version="1.1" xmlns="http://www.w3.org/2000/svg" xmlns:xlink="http://www.w3.org/1999/xlink"> 
<title>empry-state1</title>
<desc>Created with Sketch.</desc> <defs></defs> <g id="Desktop" stroke="none" stroke-width="1" fill="none" fill-rule="evenodd"> <g id="CS-desktop" transform="translate(-709.000000, -10170.000000)"> <g id="Group-46" transform="translate(710.000000, 10171.000000)"> <g id="empry-state1"> <g id="Group" stroke="#A2A1B3" stroke-linejoin="round" stroke-width="1.2155" stroke-linecap="round" opacity="0.29"> <g class="zepl-orbit-1" transform="translate(39.000000, 39.000000)" id="Oval" stroke-dasharray="2.1398,5.3496"> <g> <circle style="transform-origin:51px 51px" cx="51" cy="51" r="50.1"></circle> </g> </g> <g class="zepl-orbit-2" transform="translate(19.000000, 19.000000)" id="Oval" stroke-dasharray="2.1718,5.4296"> <g> <circle style="transform-origin:71px 71px" cx="71" cy="71" r="70.2"></circle> </g> </g> <g class="zepl-orbit-3" id="Oval" stroke-dasharray="2.1543,5.3858"> <g> <circle style="transform-origin:90px 90px" cx="90" cy="90" r="90"></circle> </g> </g> </g> <g class="zpl-astronaut" style="transform-origin:80px 80px"> <g id="Group" class="zpl-astronaut" transform="translate(70.000000, 65.000000)" fill-rule="nonzero"> <path d="M10.4,33.5 L14,31.7 L6.3,16.4 L2.7,18.2 C1.1,19 0.5,20.9 1.3,22.5 L6.1,32.1 C6.9,33.6 8.8,34.2 10.4,33.5 Z" id="Shape" fill="#A2A1B3"></path> <path d="M7.4,18.5 L19.3,12.5 L15.3,4.5 C13.7,1.2 9.7,-0.1 6.4,1.5 L6.4,1.5 C3.1,3.1 1.8,7.1 3.4,10.4 L7.4,18.5 Z" id="Shape" fill="#FFFFFF"></path> <path d="M8.1,1 C7.3,2.2 7.2,3.8 7.9,5.2 L9.6,8.6 C10.1,9.5 11.2,9.9 12.1,9.4 L16.6,7.1 L15.2,4.4 C13.9,1.8 10.9,0.5 8.1,1 Z" id="Shape" fill="#33ADFF"></path> <path d="M6.7,8.5 C6,7.1 5.7,5.9 5.6,4.8 C5.5,3.7 4,3.3 3.4,4.3 L3.4,4.3 C2.4,6.1 2.3,8.4 3.3,10.4 L7.3,18.4 L10.7,16.7 L6.7,8.5 Z" id="Shape" fill="#A2A1B3"></path> <g transform="translate(14.000000, 7.000000)" id="Shape"> <path d="M2.2,9.4 C0.9,9.1 -8.43769499e-15,7.9 0.2,6.5 C0.4,5.1 1.7,4.2 3.1,4.4 L13,6.1 L18.1,1.2 C19.1,0.2 20.7,0.3 21.6,1.3 C22.6,2.3 22.5,3.9 21.5,4.8 L15.5,10.5 C14.9,11 14.1,11.3 13.3,11.2 L2.2,9.4 L2.2,9.4 Z" fill="#FFFFFF"></path> <path d="M21.6,4.9 C22.4,4.2 22.6,3.1 22.2,2.2 C21.3,1.8 20.2,2 19.5,2.7 L14.4,7.6 L4.5,5.9 C3.1,5.7 1.8,6.6 1.6,8 C1.5,8.5 1.6,8.9 1.7,9.3 C1.9,9.4 2,9.4 2.2,9.5 L2.3,9.5 L13.4,11.4 C14.2,11.5 15,11.3 15.6,10.7 L21.6,4.9 Z" fill="#A2A1B3"></path> </g> <path d="M40.6,42.1 C40.5,43.3 39.8,44.4 38.6,44.8 C37.2,45.3 35.6,44.6 34.9,43.2 L30.6,34.7 L19,30.9 C17.4,30.4 16.6,28.7 17.1,27.1 C17.6,25.5 19.3,24.7 20.9,25.2 L30.9,28.6 C33.4,29.4 35.4,31.2 36.5,33.5 L40.1,40.7 C40.5,41.1 40.6,41.6 40.6,42.1 Z" id="Shape" fill="#A2A1B3"></path> <path d="M40.2,40.6 L35.4,31 C35,30.2 34.3,29.6 33.5,29.4 L20.9,25.2 C20.4,25 19.8,25 19.3,25.1 C18.8,26.7 19.7,28.3 21.2,28.9 L32.7,32.8 L37,41.4 C37.6,42.6 39,43.3 40.3,43 C40.4,42.8 40.4,42.5 40.4,42.2 C40.6,41.6 40.5,41.1 40.2,40.6 Z" id="Shape" fill="#FFFFFF"></path> <g transform="translate(14.000000, 28.000000)" id="Shape"> <path d="M13.7,22.4 C13.4,24 11.8,25.1 10.1,24.7 C8.6,24.4 7.7,22.9 7.8,21.4 L8.4,14.2 L0.9,5.8 C-0.2,4.6 -0.1,2.7 1.2,1.5 C2.4,0.4 4.3,0.5 5.5,1.8 L12.2,9.3 C13.8,11.1 14.6,13.4 14.4,15.8 L13.9,22 C13.7,22.2 13.7,22.3 13.7,22.4 Z" fill="#A2A1B3"></path> <path d="M5.4,1.8 C4.9,1.3 4.3,1 3.7,0.9 C2.5,2 2.4,3.9 3.5,5.1 L11,13.5 L10.4,20.8 C10.3,22.3 11.3,23.7 12.8,24 C13.2,23.6 13.6,23 13.7,22.4 C13.7,22.3 13.7,22.2 13.8,22 L14.5,13.5 C14.6,12.6 14.3,11.7 13.7,11.1 L5.4,1.8 Z" fill="#FFFFFF"></path> </g> <path d="M15.7,33.4 L26.3,28.1 C27.4,27.5 27.9,26.2 27.3,25 L19.6,9.7 C19,8.6 17.7,8.1 16.5,8.7 L5.9,14 C4.8,14.6 4.3,15.9 4.9,17.1 L12.6,32.4 C13.1,33.5 14.5,34 15.7,33.4 Z" id="Shape" fill="#FFFFFF"></path> <path d="M15.7,33.4 L17.6,32.4 L7.9,13 L6,14 C4.9,14.6 4.4,15.9 5,17.1 L12.7,32.4 C13.1,33.5 14.5,34 15.7,33.4 Z" id="Shape" fill="#A2A1B3"></path> <g transform="translate(7.000000, 14.000000)" id="Shape"> <path d="M22.7,7.5 C23.1,8 23.3,8.7 23.2,9.5 C23,10.9 21.7,11.8 20.3,11.6 L9.2,9.7 C8.9,9.6 8.5,9.5 8.2,9.3 L1.8,5 C0.6,4.2 0.3,2.7 1.1,1.5 C1.9,0.3 3.4,-6.10622664e-15 4.6,0.8 L10.7,4.8 L21.2,6.6 C21.8,6.7 22.4,7.1 22.7,7.5 Z" fill="#A2A1B3"></path> <path d="M2.4,2.5 L8.9,6.8 C9.2,7 9.5,7.1 9.9,7.2 L21,9.1 C21.8,9.2 22.6,9 23.2,8.4 C23.1,8.1 23,7.8 22.8,7.6 C22.4,7.1 21.9,6.8 21.3,6.7 L10.8,4.9 L4.7,0.9 C3.7,0.2 2.4,0.4 1.5,1.2 C1.6,1.7 1.9,2.2 2.4,2.5 Z" fill="#FFFFFF"></path> </g> </g> </g> <path d="M0.475,150.706 C0.475,150.477999 0.52899946,150.277001 0.637,150.103 C0.74500054,149.928999 0.90099898,149.842 1.105,149.842 L8.575,149.842 C8.77900102,149.842 8.93499946,149.925999 9.043,150.094 C9.15100054,150.262001 9.205,150.459999 9.205,150.688 C9.205,150.940001 9.14800057,151.152999 9.034,151.327 C8.91999943,151.501001 8.76700096,151.588 8.575,151.588 L5.803,151.588 L5.803,162.37 C5.803,162.562001 5.70700096,162.714999 5.515,162.829 C5.32299904,162.943001 5.10100126,163 4.849,163 C4.58499868,163 4.36000093,162.943001 4.174,162.829 C3.98799907,162.714999 3.895,162.562001 3.895,162.37 L3.895,151.588 L1.105,151.588 C0.91299904,151.588 0.76000057,151.501001 0.646,151.327 C0.53199943,151.152999 0.475,150.946001 0.475,150.706 Z M11.965,162.37 L11.965,150.004 C11.965,149.823999 12.0519991,149.677001 12.226,149.563 C12.4000009,149.448999 12.6249986,149.392 12.901,149.392 C13.1650013,149.392 13.3899991,149.448999 13.576,149.563 C13.7620009,149.677001 13.855,149.823999 13.855,150.004 L13.855,155.728 C14.047001,155.343998 14.343998,155.020001 14.746,154.756 C15.148002,154.491999 15.6189973,154.36 16.159,154.36 C17.0110043,154.36 17.7459969,154.707997 18.364,155.404 C18.9820031,156.100003 19.291,156.933995 19.291,157.906 L19.291,162.37 C19.291,162.562001 19.195001,162.714999 19.003,162.829 C18.810999,162.943001 18.5890013,163 18.337,163 C18.0969988,163 17.881001,162.943001 17.689,162.829 C17.496999,162.714999 17.401,162.562001 17.401,162.37 L17.401,157.906 C17.401,157.425998 17.2210018,156.994002 16.861,156.61 C16.5009982,156.225998 16.0750025,156.034 15.583,156.034 C15.1269977,156.034 14.7250017,156.204998 14.377,156.547 C14.0289983,156.889002 13.855,157.341997 13.855,157.906 L13.855,162.37 C13.855,162.526001 13.759001,162.669999 13.567,162.802 C13.374999,162.934001 13.1530013,163 12.901,163 C12.6369987,163 12.4150009,162.934001 12.235,162.802 C12.0549991,162.669999 11.965,162.526001 11.965,162.37 Z M22.159,160.768 C22.159,159.807995 22.5189964,159.139002 23.239,158.761 C23.9590036,158.382998 25.0029932,158.194 26.371,158.194 L27.163,158.194 L27.163,157.87 C27.163,157.341997 27.0160015,156.886002 26.722,156.502 C26.4279985,156.117998 25.981003,155.926 25.381,155.926 C24.8649974,155.926 24.412002,156.015999 24.022,156.196 C23.6319981,156.376001 23.4190002,156.466 23.383,156.466 C23.178999,156.466 23.0140006,156.367001 22.888,156.169 C22.7619994,155.970999 22.699,155.752001 22.699,155.512 C22.699,155.199998 22.9899971,154.930001 23.572,154.702 C24.1540029,154.473999 24.7689968,154.36 25.417,154.36 C26.6530062,154.36 27.567997,154.692997 28.162,155.359 C28.756003,156.025003 29.053,156.855995 29.053,157.852 L29.053,162.37 C29.053,162.538001 28.9660009,162.684999 28.792,162.811 C28.6179991,162.937001 28.3990013,163 28.135,163 C27.8949988,163 27.6910008,162.937001 27.523,162.811 C27.3549992,162.684999 27.271,162.538001 27.271,162.37 L27.271,161.74 C26.466996,162.676005 25.561005,163.144 24.553,163.144 C23.8569965,163.144 23.2840023,162.940002 22.834,162.532 C22.3839978,162.123998 22.159,161.536004 22.159,160.768 Z M24.067,160.534 C24.067,160.918002 24.1749989,161.208999 24.391,161.407 C24.6070011,161.605001 24.8889983,161.704 25.237,161.704 C25.6930023,161.704 26.1279979,161.512002 26.542,161.128 C26.9560021,160.743998 27.163,160.336002 27.163,159.904 L27.163,159.238 L26.713,159.238 C26.1729973,159.238 25.7320017,159.262 25.39,159.31 C25.0479983,159.358 24.7420014,159.483999 24.472,159.688 C24.2019987,159.892001 24.067,160.173998 24.067,160.534 Z M32.479,162.37 L32.479,155.08 C32.479,154.899999 32.5659991,154.753001 32.74,154.639 C32.9140009,154.524999 33.1389986,154.468 33.415,154.468 C33.6550012,154.468 33.8559992,154.524999 34.018,154.639 C34.1800008,154.753001 34.261,154.899999 34.261,155.08 L34.261,155.728 C34.453001,155.343998 34.7619979,155.020001 35.188,154.756 C35.6140021,154.491999 36.1089972,154.36 36.673,154.36 C37.5250043,154.36 38.2599969,154.707997 38.878,155.404 C39.4960031,156.100003 39.805,156.933995 39.805,157.906 L39.805,162.37 C39.805,162.562001 39.7120009,162.714999 39.526,162.829 C39.3399991,162.943001 39.1150013,163 38.851,163 C38.6109988,163 38.395001,162.943001 38.203,162.829 C38.010999,162.714999 37.915,162.562001 37.915,162.37 L37.915,157.906 C37.915,157.425998 37.7350018,156.994002 37.375,156.61 C37.0149982,156.225998 36.5890025,156.034 36.097,156.034 C35.6409977,156.034 35.2390017,156.204998 34.891,156.547 C34.5429983,156.889002 34.369,157.341997 34.369,157.906 L34.369,162.37 C34.369,162.526001 34.273001,162.669999 34.081,162.802 C33.888999,162.934001 33.6670013,163 33.415,163 C33.1509987,163 32.9290009,162.934001 32.749,162.802 C32.5689991,162.669999 32.479,162.526001 32.479,162.37 Z M43.231,162.37 L43.231,150.004 C43.231,149.823999 43.3149992,149.677001 43.483,149.563 C43.6510008,149.448999 43.8729986,149.392 44.149,149.392 C44.4250014,149.392 44.6559991,149.448999 44.842,149.563 C45.0280009,149.677001 45.121,149.823999 45.121,150.004 L45.121,158.014 L48.883,154.558 C48.9910005,154.449999 49.1229992,154.396 49.279,154.396 C49.483001,154.396 49.686999,154.491999 49.891,154.684 C50.095001,154.876001 50.197,155.079999 50.197,155.296 C50.197,155.452001 50.1430005,155.583999 50.035,155.692 L47.713,157.762 L50.539,161.83 C50.6110004,161.938001 50.647,162.045999 50.647,162.154 C50.647,162.370001 50.5270012,162.582999 50.287,162.793 C50.0469988,163.003001 49.8130011,163.108 49.585,163.108 C49.380999,163.108 49.2130007,163.018001 49.081,162.838 L46.435,158.932 L45.121,160.12 L45.121,162.37 C45.121,162.526001 45.025001,162.669999 44.833,162.802 C44.640999,162.934001 44.4130013,163 44.149,163 C43.8849987,163 43.6660009,162.934001 43.492,162.802 C43.3179991,162.669999 43.231,162.526001 43.231,162.37 Z M52.849,161.704 C52.849,161.523999 52.9119994,161.338001 53.038,161.146 C53.1640006,160.953999 53.3169991,160.858 53.497,160.858 C53.6050005,160.858 53.754999,160.926999 53.947,161.065 C54.139001,161.203001 54.3969984,161.340999 54.721,161.479 C55.0450016,161.617001 55.4349977,161.686 55.891,161.686 C56.9110051,161.686 57.421,161.362003 57.421,160.714 C57.421,160.365998 57.2710015,160.093001 56.971,159.895 C56.6709985,159.696999 56.3080021,159.541001 55.882,159.427 C55.4559979,159.312999 55.0330021,159.184001 54.613,159.04 C54.1929979,158.895999 53.8330015,158.650002 53.533,158.302 C53.2329985,157.953998 53.083,157.504003 53.083,156.952 C53.083,156.243996 53.3349975,155.635003 53.839,155.125 C54.3430025,154.614997 55.1169948,154.36 56.161,154.36 C56.8450034,154.36 57.4659972,154.464999 58.024,154.675 C58.5820028,154.885001 58.861,155.133999 58.861,155.422 C58.861,155.590001 58.7920007,155.784999 58.654,156.007 C58.5159993,156.229001 58.345001,156.34 58.141,156.34 C58.0689996,156.34 57.8230021,156.253001 57.403,156.079 C56.9829979,155.904999 56.5810019,155.818 56.197,155.818 C55.7169976,155.818 55.3540012,155.925999 55.108,156.142 C54.8619988,156.358001 54.739,156.597999 54.739,156.862 C54.739,157.150001 54.8889985,157.377999 55.189,157.546 C55.4890015,157.714001 55.8549978,157.851999 56.287,157.96 C56.7190022,158.068001 57.1479979,158.199999 57.574,158.356 C58.0000021,158.512001 58.3629985,158.781998 58.663,159.166 C58.9630015,159.550002 59.113,160.041997 59.113,160.642 C59.113,161.422004 58.8370028,162.033998 58.285,162.478 C57.7329972,162.922002 56.953005,163.144 55.945,163.144 C55.0929957,163.144 54.364003,162.994001 53.758,162.694 C53.151997,162.393999 52.849,162.064002 52.849,161.704 Z M67.243,162.388 L67.243,152.83 C67.243,151.869995 67.5549969,151.057003 68.179,150.391 C68.8030031,149.724997 69.5529956,149.392 70.429,149.392 L71.257,149.392 C71.4850011,149.392 71.6649993,149.472999 71.797,149.635 C71.9290007,149.797001 71.995,149.985999 71.995,150.202 C71.995,150.418001 71.9290007,150.606999 71.797,150.769 C71.6649993,150.931001 71.4850011,151.012 71.257,151.012 L70.789,151.012 C70.3089976,151.012 69.9130016,151.167998 69.601,151.48 C69.2889984,151.792002 69.133,152.181998 69.133,152.65 L69.133,154.468 L71.473,154.468 C71.6290008,154.468 71.7549995,154.536999 71.851,154.675 C71.9470005,154.813001 71.995,154.977999 71.995,155.17 C71.995,155.362001 71.9470005,155.526999 71.851,155.665 C71.7549995,155.803001 71.6290008,155.872 71.473,155.872 L69.133,155.872 L69.133,162.388 C69.133,162.568001 69.037001,162.714999 68.845,162.829 C68.652999,162.943001 68.4250013,163 68.161,163 C67.8969987,163 67.6780009,162.943001 67.504,162.829 C67.3299991,162.714999 67.243,162.568001 67.243,162.388 Z M74.053,159.562 L74.053,157.906 C74.053,156.957995 74.4189963,156.130004 75.151,155.422 C75.8830037,154.713996 76.7589949,154.36 77.779,154.36 C78.775005,154.36 79.6449963,154.710996 80.389,155.413 C81.1330037,156.115004 81.505,156.945995 81.505,157.906 L81.505,159.562 C81.505,160.498005 81.1300037,161.328996 80.38,162.055 C79.6299962,162.781004 78.7630049,163.144 77.779,163.144 C76.782995,163.144 75.9130037,162.784004 75.169,162.064 C74.4249963,161.343996 74.053,160.510005 74.053,159.562 Z M75.943,159.562 C75.943,160.054002 76.1229982,160.494998 76.483,160.885 C76.8430018,161.275002 77.2749975,161.47 77.779,161.47 C78.2710025,161.47 78.6999982,161.275002 79.066,160.885 C79.4320018,160.494998 79.615,160.054002 79.615,159.562 L79.615,157.906 C79.615,157.425998 79.4320018,156.994002 79.066,156.61 C78.6999982,156.225998 78.2710025,156.034 77.779,156.034 C77.2749975,156.034 76.8430018,156.225998 76.483,156.61 C76.1229982,156.994002 75.943,157.425998 75.943,157.906 L75.943,159.562 Z M84.661,162.37 L84.661,155.08 C84.661,154.899999 84.7479991,154.753001 84.922,154.639 C85.0960009,154.524999 85.3149987,154.468 85.579,154.468 C85.8190012,154.468 86.0229992,154.524999 86.191,154.639 C86.3590008,154.753001 86.443,154.899999 86.443,155.08 L86.443,155.872 C86.647001,155.451998 86.9559979,155.095001 87.37,154.801 C87.7840021,154.506999 88.2369975,154.36 88.729,154.36 L89.305,154.36 C89.497001,154.36 89.6649993,154.440999 89.809,154.603 C89.9530007,154.765001 90.025,154.959999 90.025,155.188 C90.025,155.416001 89.9530007,155.613999 89.809,155.782 C89.6649993,155.950001 89.497001,156.034 89.305,156.034 L88.729,156.034 C88.1529971,156.034 87.6460022,156.279998 87.208,156.772 C86.7699978,157.264002 86.551,157.899996 86.551,158.68 L86.551,162.37 C86.551,162.526001 86.455001,162.669999 86.263,162.802 C86.070999,162.934001 85.8430013,163 85.579,163 C85.3149987,163 85.0960009,162.934001 84.922,162.802 C84.7479991,162.669999 84.661,162.526001 84.661,162.37 Z M96.931,155.188 C96.931,154.971999 97.0629987,154.786001 97.327,154.63 C97.5910013,154.473999 97.8609986,154.396 98.137,154.396 C98.4370015,154.396 98.6289996,154.509999 98.713,154.738 L100.711,160.336 L102.241,155.368 C102.325,155.091999 102.546998,154.954 102.907,154.954 C103.267002,154.954 103.489,155.091999 103.573,155.368 L105.085,160.372 L107.101,154.738 C107.173,154.509999 107.358998,154.396 107.659,154.396 C107.923001,154.396 108.189999,154.473999 108.46,154.63 C108.730001,154.786001 108.865,154.977999 108.865,155.206 C108.865,155.302 108.841,155.398 108.793,155.494 L106.003,162.802 C105.907,163.054001 105.655002,163.18 105.247,163.18 C104.838998,163.18 104.581001,163.060001 104.473,162.82 L102.907,158.176 L101.359,162.766 C101.250999,163.042001 100.981002,163.18 100.549,163.18 C100.152998,163.18 99.9010005,163.042001 99.793,162.766 L97.003,155.494 C96.9549998,155.349999 96.931,155.248 96.931,155.188 Z M111.013,160.768 C111.013,159.807995 111.372996,159.139002 112.093,158.761 C112.813004,158.382998 113.856993,158.194 115.225,158.194 L116.017,158.194 L116.017,157.87 C116.017,157.341997 115.870001,156.886002 115.576,156.502 C115.281999,156.117998 114.835003,155.926 114.235,155.926 C113.718997,155.926 113.266002,156.015999 112.876,156.196 C112.485998,156.376001 112.273,156.466 112.237,156.466 C112.032999,156.466 111.868001,156.367001 111.742,156.169 C111.615999,155.970999 111.553,155.752001 111.553,155.512 C111.553,155.199998 111.843997,154.930001 112.426,154.702 C113.008003,154.473999 113.622997,154.36 114.271,154.36 C115.507006,154.36 116.421997,154.692997 117.016,155.359 C117.610003,156.025003 117.907,156.855995 117.907,157.852 L117.907,162.37 C117.907,162.538001 117.820001,162.684999 117.646,162.811 C117.471999,162.937001 117.253001,163 116.989,163 C116.748999,163 116.545001,162.937001 116.377,162.811 C116.208999,162.684999 116.125,162.538001 116.125,162.37 L116.125,161.74 C115.320996,162.676005 114.415005,163.144 113.407,163.144 C112.710997,163.144 112.138002,162.940002 111.688,162.532 C111.237998,162.123998 111.013,161.536004 111.013,160.768 Z M112.921,160.534 C112.921,160.918002 113.028999,161.208999 113.245,161.407 C113.461001,161.605001 113.742998,161.704 114.091,161.704 C114.547002,161.704 114.981998,161.512002 115.396,161.128 C115.810002,160.743998 116.017,160.336002 116.017,159.904 L116.017,159.238 L115.567,159.238 C115.026997,159.238 114.586002,159.262 114.244,159.31 C113.901998,159.358 113.596001,159.483999 113.326,159.688 C113.055999,159.892001 112.921,160.173998 112.921,160.534 Z M121.315,160.192 L121.315,151.174 C121.315,151.005999 121.410999,150.862001 121.603,150.742 C121.795001,150.621999 122.010999,150.562 122.251,150.562 C122.491001,150.562 122.709999,150.621999 122.908,150.742 C123.106001,150.862001 123.205,151.005999 123.205,151.174 L123.205,154.468 L125.401,154.468 C125.557001,154.468 125.683,154.536999 125.779,154.675 C125.875,154.813001 125.923,154.977999 125.923,155.17 C125.923,155.362001 125.875,155.526999 125.779,155.665 C125.683,155.803001 125.557001,155.872 125.401,155.872 L123.205,155.872 L123.205,160.192 C123.205,160.624002 123.297999,160.929999 123.484,161.11 C123.670001,161.290001 123.996998,161.38 124.465,161.38 L125.095,161.38 C125.347001,161.38 125.544999,161.457999 125.689,161.614 C125.833001,161.770001 125.905,161.961999 125.905,162.19 C125.905,162.418001 125.833001,162.609999 125.689,162.766 C125.544999,162.922001 125.347001,163 125.095,163 L124.465,163 C122.364989,163 121.315,162.064009 121.315,160.192 Z M128.341,159.562 L128.341,157.942 C128.341,156.873995 128.652997,156.010003 129.277,155.35 C129.901003,154.689997 130.830994,154.36 132.067,154.36 C132.847004,154.36 133.500997,154.494999 134.029,154.765 C134.557003,155.035001 134.821,155.337998 134.821,155.674 C134.821,155.878001 134.746001,156.081999 134.596,156.286 C134.445999,156.490001 134.269001,156.592 134.065,156.592 C134.005,156.592 133.792002,156.499001 133.426,156.313 C133.059998,156.126999 132.655002,156.034 132.211,156.034 C130.890993,156.034 130.231,156.669994 130.231,157.942 L130.231,159.562 C130.231,160.834006 130.896993,161.47 132.229,161.47 C132.685002,161.47 133.095998,161.371001 133.462,161.173 C133.828002,160.974999 134.047,160.876 134.119,160.876 C134.359001,160.876 134.553999,160.971999 134.704,161.164 C134.854001,161.356001 134.929,161.559999 134.929,161.776 C134.929,162.112002 134.653003,162.423999 134.101,162.712 C133.548997,163.000001 132.877004,163.144 132.085,163.144 C130.836994,163.144 129.901003,162.817003 129.277,162.163 C128.652997,161.508997 128.341,160.642005 128.341,159.562 Z M137.815,162.37 L137.815,150.004 C137.815,149.823999 137.901999,149.677001 138.076,149.563 C138.250001,149.448999 138.474999,149.392 138.751,149.392 C139.015001,149.392 139.239999,149.448999 139.426,149.563 C139.612001,149.677001 139.705,149.823999 139.705,150.004 L139.705,155.728 C139.897001,155.343998 140.193998,155.020001 140.596,154.756 C140.998002,154.491999 141.468997,154.36 142.009,154.36 C142.861004,154.36 143.595997,154.707997 144.214,155.404 C144.832003,156.100003 145.141,156.933995 145.141,157.906 L145.141,162.37 C145.141,162.562001 145.045001,162.714999 144.853,162.829 C144.660999,162.943001 144.439001,163 144.187,163 C143.946999,163 143.731001,162.943001 143.539,162.829 C143.346999,162.714999 143.251,162.562001 143.251,162.37 L143.251,157.906 C143.251,157.425998 143.071002,156.994002 142.711,156.61 C142.350998,156.225998 141.925002,156.034 141.433,156.034 C140.976998,156.034 140.575002,156.204998 140.227,156.547 C139.878998,156.889002 139.705,157.341997 139.705,157.906 L139.705,162.37 C139.705,162.526001 139.609001,162.669999 139.417,162.802 C139.224999,162.934001 139.003001,163 138.751,163 C138.486999,163 138.265001,162.934001 138.085,162.802 C137.904999,162.669999 137.815,162.526001 137.815,162.37 Z M148.387,151.336 C148.387,151.059999 148.494999,150.826001 148.711,150.634 C148.927001,150.441999 149.184999,150.346 149.485,150.346 C149.785002,150.346 150.042999,150.441999 150.259,150.634 C150.475001,150.826001 150.583,151.059999 150.583,151.336 C150.583,151.600001 150.475001,151.830999 150.259,152.029 C150.042999,152.227001 149.785002,152.326 149.485,152.326 C149.184999,152.326 148.927001,152.227001 148.711,152.029 C148.494999,151.830999 148.387,151.600001 148.387,151.336 Z M148.549,162.37 L148.549,155.08 C148.549,154.899999 148.635999,154.753001 148.81,154.639 C148.984001,154.524999 149.208999,154.468 149.485,154.468 C149.761001,154.468 149.988999,154.524999 150.169,154.639 C150.349001,154.753001 150.439,154.899999 150.439,155.08 L150.439,162.37 C150.439,162.526001 150.346001,162.669999 150.16,162.802 C149.973999,162.934001 149.749001,163 149.485,163 C149.220999,163 148.999001,162.934001 148.819,162.802 C148.638999,162.669999 148.549,162.526001 148.549,162.37 Z M153.919,162.37 L153.919,155.08 C153.919,154.899999 154.005999,154.753001 154.18,154.639 C154.354001,154.524999 154.578999,154.468 154.855,154.468 C155.095001,154.468 155.295999,154.524999 155.458,154.639 C155.620001,154.753001 155.701,154.899999 155.701,155.08 L155.701,155.728 C155.893001,155.343998 156.201998,155.020001 156.628,154.756 C157.054002,154.491999 157.548997,154.36 158.113,154.36 C158.965004,154.36 159.699997,154.707997 160.318,155.404 C160.936003,156.100003 161.245,156.933995 161.245,157.906 L161.245,162.37 C161.245,162.562001 161.152001,162.714999 160.966,162.829 C160.779999,162.943001 160.555001,163 160.291,163 C160.050999,163 159.835001,162.943001 159.643,162.829 C159.450999,162.714999 159.355,162.562001 159.355,162.37 L159.355,157.906 C159.355,157.425998 159.175002,156.994002 158.815,156.61 C158.454998,156.225998 158.029002,156.034 157.537,156.034 C157.080998,156.034 156.679002,156.204998 156.331,156.547 C155.982998,156.889002 155.809,157.341997 155.809,157.906 L155.809,162.37 C155.809,162.526001 155.713001,162.669999 155.521,162.802 C155.328999,162.934001 155.107001,163 154.855,163 C154.590999,163 154.369001,162.934001 154.189,162.802 C154.008999,162.669999 153.919,162.526001 153.919,162.37 Z M164.005,164.566 C164.005,163.725996 164.466995,163.084002 165.391,162.64 C164.826997,162.399999 164.545,162.004003 164.545,161.452 C164.545,160.923997 164.844997,160.468002 165.445,160.084 C164.736996,159.531997 164.383,158.776005 164.383,157.816 L164.383,157.312 C164.383,156.447996 164.691997,155.740003 165.31,155.188 C165.928003,154.635997 166.734995,154.36 167.731,154.36 C168.571004,154.36 169.266997,154.563998 169.819,154.972 C170.167002,154.167996 170.556998,153.766 170.989,153.766 C171.217001,153.766 171.402999,153.834999 171.547,153.973 C171.691001,154.111001 171.763,154.257999 171.763,154.414 C171.763,154.606001 171.661001,154.755999 171.457,154.864 C171.072998,155.032001 170.773001,155.271998 170.557,155.584 C170.941002,156.064002 171.133,156.639997 171.133,157.312 L171.133,157.816 C171.133,158.680004 170.815003,159.393997 170.179,159.958 C169.542997,160.522003 168.727005,160.804 167.731,160.804 C167.262998,160.804 166.849002,160.732001 166.489,160.588 C166.260999,160.744001 166.147,160.911999 166.147,161.092 C166.147,161.332001 166.335998,161.505999 166.714,161.614 C167.092002,161.722001 167.547997,161.806 168.082,161.866 C168.616003,161.926 169.149997,162.012999 169.684,162.127 C170.218003,162.241001 170.673998,162.483998 171.052,162.856 C171.430002,163.228002 171.619,163.719997 171.619,164.332 C171.619,165.232004 171.262004,165.909998 170.548,166.366 C169.833996,166.822002 168.931005,167.05 167.839,167.05 C166.746995,167.05 165.835004,166.825002 165.103,166.375 C164.370996,165.924998 164.005,165.322004 164.005,164.566 Z M165.787,164.368 C165.787,164.800002 165.975998,165.144999 166.354,165.403 C166.732002,165.661001 167.220997,165.79 167.821,165.79 C168.409003,165.79 168.882998,165.664001 169.243,165.412 C169.603002,165.159999 169.783,164.818002 169.783,164.386 C169.783,164.109999 169.699001,163.879001 169.531,163.693 C169.362999,163.506999 169.114002,163.369 168.784,163.279 C168.453998,163.189 168.172001,163.129 167.938,163.099 C167.703999,163.069 167.389002,163.042 166.993,163.018 C166.188996,163.318002 165.787,163.767997 165.787,164.368 Z M166.219,157.798 C166.219,158.326003 166.356999,158.757998 166.633,159.094 C166.909001,159.430002 167.286998,159.598 167.767,159.598 C168.235002,159.598 168.606999,159.433002 168.883,159.103 C169.159001,158.772998 169.297,158.344003 169.297,157.816 L169.297,157.312 C169.297,156.807997 169.159001,156.391002 168.883,156.061 C168.606999,155.730998 168.229002,155.566 167.749,155.566 C167.280998,155.566 166.909001,155.730998 166.633,156.061 C166.356999,156.391002 166.219,156.807997 166.219,157.312 L166.219,157.798 Z M174.325,162.028 C174.325,161.727999 174.429999,161.473001 174.64,161.263 C174.850001,161.052999 175.104998,160.948 175.405,160.948 C175.693001,160.948 175.941999,161.052999 176.152,161.263 C176.362001,161.473001 176.467,161.727999 176.467,162.028 C176.467,162.316001 176.362001,162.567999 176.152,162.784 C175.941999,163.000001 175.693001,163.108 175.405,163.108 C175.104998,163.108 174.850001,163.000001 174.64,162.784 C174.429999,162.567999 174.325,162.316001 174.325,162.028 Z M174.433,150.58 C174.433,150.303999 174.522999,150.091001 174.703,149.941 C174.883001,149.790999 175.110999,149.716 175.387,149.716 C175.663001,149.716 175.890999,149.793999 176.071,149.95 C176.251001,150.106001 176.341,150.315999 176.341,150.58 C176.341,151.444004 176.302,152.85399 176.224,154.81 C176.146,156.76601 176.107,158.175996 176.107,159.04 C176.107,159.220001 176.029001,159.360999 175.873,159.463 C175.716999,159.565001 175.555001,159.616 175.387,159.616 C174.894998,159.616 174.649,159.424002 174.649,159.04 C174.649,158.175996 174.613,156.76601 174.541,154.81 C174.469,152.85399 174.433,151.444004 174.433,150.58 Z" id="Thanks-for-watching!" fill="#47364D"></path> </g> </g> </g> </g> </svg>