<?xml version="1.0" encoding="utf-8"?>
<!-- Generator: Adobe Illustrator 23.0.2, SVG Export Plug-In . SVG Version: 6.00 Build 0)  -->
<svg version="1.1" id="Layer_1" xmlns="http://www.w3.org/2000/svg" xmlns:xlink="http://www.w3.org/1999/xlink" x="0px" y="0px"
	 viewBox="0 0 200 200" style="enable-background:new 0 0 200 200;" xml:space="preserve">
<style type="text/css">
	.st0{display:none;}
	.st1{fill:none;stroke:#000000;stroke-width:9;stroke-miterlimit:10;}
	.st2{fill:none;stroke:#000000;stroke-width:9;stroke-linecap:round;stroke-miterlimit:10;}
	.st3{display:inline;}
	.st4{fill:none;stroke:#020202;stroke-width:9;stroke-linecap:round;stroke-miterlimit:10;}
	.st5{fill:#010101;}
	.st6{display:inline;fill:none;stroke:#000000;stroke-width:9;stroke-linecap:round;stroke-miterlimit:10;}
	.st7{display:inline;fill:none;stroke:#000000;stroke-width:9;stroke-miterlimit:10;}
</style>
<g id="Layer_2">
</g>
<g class="st0">
</g>
<g>
	<path class="st1" d="M169.9,77.9v96.6c0,6.4-5.2,11.6-11.6,11.6H42.6c-6.4,0-11.6-5.2-11.6-11.6V77.9"/>
	<path class="st2" d="M10.6,96.8L98.9,8.6c0.4-0.4,0.9-0.6,1.3-0.6l0,0c0.5,0,1,0.2,1.3,0.6l88.2,88.2"/>
</g>
<g id="Layer_3" class="st0">
	<g class="st3">
		<circle class="st4" cx="69.7" cy="70.7" r="40.6"/>
		<path class="st4" d="M9.9,172c0-33,26.8-59.8,59.8-59.8s59.8,26.8,59.8,59.8"/>
		<path class="st4" d="M119.2,100.7c6.7-3.6,14.4-5.6,22.5-5.6c26.2,0,47.4,21.2,47.4,47.4"/>
		<path class="st4" d="M119.9,39.2c5.8-5.3,13.4-8.6,21.9-8.6c17.8,0,32.2,14.4,32.2,32.2S159.6,95,141.8,95c-4.8,0-9.2-1-13.2-2.9"
			/>
	</g>
</g>
<g id="Layer_6" class="st0">
	<g class="st3">
		<path class="st5" d="M46.4,192.4c-2.1,0-4.3-0.7-6.1-2c-3.4-2.4-4.9-6.6-4-10.7l12.5-55.2L6.3,87.3c-3.1-2.7-4.3-7-3-11
			c1.3-3.9,4.8-6.7,8.9-7.1l56.2-5.1l22.2-52c1.6-3.8,5.4-6.3,9.5-6.3s7.9,2.5,9.5,6.3l22.2,52l56.2,5.1c4.1,0.4,7.6,3.2,8.9,7.1
			c1.3,3.9,0.1,8.3-3,11l-42.5,37.3l12.5,55.2c0.9,4.1-0.7,8.3-4,10.7c-3.4,2.4-7.8,2.6-11.4,0.5L100,162l-48.5,29
			C50.1,191.9,48.2,192.4,46.4,192.4z M100.2,149.5c1.8,0,3.7,0.5,5.3,1.5l45.8,27.4l-11.8-52.1c-0.8-3.7,0.4-7.6,3.3-10.1l40-35.2
			l-53.1-4.8c-3.8-0.3-7.1-2.8-8.6-6.3l-21-49.1l-21,49.1c-1.5,3.5-4.8,5.9-8.6,6.2l-53,4.9l40.1,35.2c2.9,2.5,4.1,6.4,3.3,10.1
			l-11.8,52.1L94.9,151C96.5,150,98.3,149.5,100.2,149.5z M68,65.1L68,65.1L68,65.1z M132.3,65.1L132.3,65.1L132.3,65.1z"/>
	</g>
</g>
<g id="Layer_5" class="st0">
	<path class="st6" d="M164,36.8l-0.2,126.1c0,15.4-12.6,28-28,28H67.2c-15.4,0-28-12.6-28-28V37.6"/>
	<path class="st7" d="M59.8,36V20.1c0-7,5.8-12.8,12.8-12.8h56.5c7,0,12.8,5.8,12.8,12.8V36"/>
	<line class="st6" x1="24.6" y1="36" x2="177.2" y2="36"/>
	<line class="st6" x1="76.9" y1="69.4" x2="76.9" y2="155.7"/>
	<line class="st6" x1="124.6" y1="69.4" x2="124.6" y2="155.7"/>
</g>
<g id="Layer_8" class="st0">
	<path class="st7" d="M36.4,188.2H22.2c-6.6,0-12-5.4-12-12V87.8c0-6.6,5.4-12,12-12h14.2c6.6,0,12,5.4,12,12v88.4
		C48.4,182.8,43,188.2,36.4,188.2z"/>
	<path class="st7" d="M48.4,87.5l54.3-72c1.3-1.7,3.2-3,5.3-3.5l5.7-1.5c5.9-1.5,12.1,1,15.2,6.2l3,5c1.2,2,1.8,4.3,1.8,6.6v1.2
		c0,2-0.3,3.9-0.9,5.8l-12,36c-0.7,2.1,0.9,4.2,3,4.2l50.1-0.3c2.3,0,4.5,0.8,6.1,2.4l10.6,9.6c1.7,1.5,2.6,3.6,2.7,5.9l0.5,14.9
		c0.1,1.7-0.3,3.4-1.1,4.9l-34.3,68c-1.4,2.8-4.3,4.6-7.5,4.6l-71.2-0.3c-1.1,0-2.2-0.2-3.2-0.7L50,172.9"/>
</g>
<g id="Layer_11" class="st0">
</g>
<g id="Layer_12" class="st0">
	<path class="st6" d="M73.2,180.4c10,3.6,20.8,5.4,32.1,5.2c47.3-1.1,85.7-39.8,86.6-87c0.9-50.4-40.1-91.4-90.5-90.5
		c-47.8,0.9-86.6,40.2-87,88c-0.2,21.1,7,40.6,19.2,55.9c1,1.3,1.2,3,0.5,4.5l-14.3,30.9c-0.4,0.8,0.3,1.7,1.2,1.5l47.8-8.9
		C70.3,179.8,71.8,179.9,73.2,180.4z"/>
	<line class="st6" x1="66.6" y1="82.3" x2="101.5" y2="82.3"/>
	<line class="st6" x1="66.6" y1="108.6" x2="135.9" y2="108.6"/>
</g>
<g id="Layer_7" class="st0">
	<path class="st6" d="M103.3,13.3H28.6c-6.6,0-12,5.4-12,12v143.4c0,6.6,5.4,12,12,12h73.7"/>
	<line class="st6" x1="72" y1="96.5" x2="186.2" y2="96.5"/>
	<line class="st6" x1="136.1" y1="144" x2="186.2" y2="96.5"/>
	<line class="st6" x1="186.2" y1="95.9" x2="136.1" y2="48.4"/>
</g>
<g id="Layer_10" class="st0">
	<g class="st3">
		<path class="st5" d="M99.4,53.8c-25.5,0-46.3,20.8-46.3,46.3s20.8,46.3,46.3,46.3s46.3-20.8,46.3-46.3S124.9,53.8,99.4,53.8z
			 M99.4,134.8c-19.1,0-34.7-15.6-34.7-34.7s15.6-34.7,34.7-34.7s34.7,15.6,34.7,34.7S118.5,134.8,99.4,134.8z"/>
		<path class="st5" d="M191.6,78l-14.9-3.2c-1.3-4-2.9-7.8-4.8-11.6l8.2-12.8c1.5-2.3,1.1-5.3-0.8-7.2L156.2,20
			c-1.9-1.9-4.9-2.2-7.2-0.8l-12.8,8.2c-3.7-1.9-7.6-3.5-11.6-4.8l-3.2-14.9c-0.6-2.7-2.9-4.6-5.7-4.6H83c-2.7,0-5.1,1.9-5.7,4.6
			l-3.2,14.9c-4,1.3-7.8,2.9-11.6,4.8l-12.8-8.2c-2.3-1.5-5.3-1.1-7.2,0.8L19.3,43.2c-1.9,1.9-2.2,4.9-0.8,7.2l8.2,12.8
			c-1.9,3.7-3.5,7.6-4.8,11.6L7.1,78c-2.7,0.6-4.6,2.9-4.6,5.7v32.8c0,2.7,1.9,5.1,4.6,5.7l14.9,3.2c1.3,4,2.9,7.8,4.8,11.6
			l-8.2,12.8c-1.5,2.3-1.1,5.3,0.8,7.2l23.2,23.2c1.9,1.9,4.9,2.2,7.2,0.8l12.8-8.2c3.7,1.9,7.6,3.5,11.6,4.8l3.2,14.9
			c0.6,2.7,2.9,4.6,5.7,4.6h32.8c2.7,0,5.1-1.9,5.7-4.6l3.2-14.9c4-1.3,7.8-2.9,11.6-4.8l12.8,8.2c2.3,1.5,5.3,1.1,7.2-0.8
			l23.2-23.2c1.9-1.9,2.2-4.9,0.8-7.2l-8.2-12.8c1.9-3.7,3.5-7.6,4.8-11.6l14.9-3.2c2.7-0.6,4.6-2.9,4.6-5.7V83.7
			C196.2,81,194.3,78.6,191.6,78z M184.6,111.8l-13.6,3c-2.1,0.5-3.8,2-4.3,4.1c-1.5,5.4-3.7,10.6-6.4,15.5c-1.1,1.9-1,4.2,0.2,6
			l7.6,11.8l-16.6,16.6l-11.8-7.6c-1.8-1.2-4.1-1.2-6-0.2c-4.9,2.8-10.1,4.9-15.5,6.4c-2.1,0.6-3.6,2.2-4.1,4.3l-3,13.6H87.6
			l-3-13.6c-0.5-2.1-2-3.8-4.1-4.3c-5.4-1.5-10.6-3.7-15.5-6.4c-1.9-1.1-4.2-1-6,0.2l-11.8,7.6l-16.6-16.6l7.6-11.8
			c1.2-1.8,1.2-4.1,0.2-6c-2.8-4.9-4.9-10.1-6.4-15.5c-0.6-2.1-2.2-3.6-4.3-4.1l-13.7-3V88.3l13.6-3c2.1-0.5,3.8-2,4.3-4.1
			c1.5-5.4,3.7-10.6,6.4-15.5c1.1-1.9,1-4.2-0.2-6l-7.6-11.8l16.6-16.6l12,7.7c1.8,1.2,4.1,1.2,6,0.2c4.9-2.8,10.1-4.9,15.5-6.4
			c2.1-0.6,3.6-2.2,4.1-4.3l3-13.6h23.5l3,13.6c0.5,2.1,2,3.8,4.1,4.3c5.4,1.5,10.6,3.7,15.5,6.4c1.9,1.1,4.2,1,6-0.2l11.8-7.6
			L168.2,48l-7.6,11.8c-1.2,1.8-1.2,4.1-0.2,6c2.8,4.9,4.9,10.1,6.4,15.5c0.6,2.1,2.2,3.6,4.3,4.1l13.7,3v23.4H184.6z"/>
	</g>
</g>
</svg>
