<?xml version="1.0" encoding="utf-8"?>
<!-- Generator: Adobe Illustrator 23.0.2, SVG Export Plug-In . SVG Version: 6.00 Build 0)  -->
<svg version="1.1" id="Layer_1" xmlns="http://www.w3.org/2000/svg" xmlns:xlink="http://www.w3.org/1999/xlink" x="0px" y="0px"
	 viewBox="0 0 566.9 6596.2" style="enable-background:new 0 0 566.9 6596.2;" xml:space="preserve">
<style type="text/css">
	.st0{fill:none;stroke:#A7A9AC;stroke-width:2;stroke-miterlimit:10;}
	.st1{fill:none;}
	.st2{fill:#808285;}
	.st3{font-family:'Catamaran';}
	.st4{font-size:21px;}
	.st5{font-size:25px;}
</style>
<!-- <link href="https://fonts.googleapis.com/css2?family=Catamaran:wght@100;200;300;400;500;600;700;800;900&display=swap" rel="stylesheet"> -->
<line class="st0" x1="12.9" y1="8.8" x2="248.1" y2="8.8"/>
<line class="st0" x1="248.1" y1="8.8" x2="248.1" y2="697.1"/>
<line class="st0" x1="248.1" y1="352.9" x2="279.6" y2="352.9"/>
<rect x="301.8" y="344.9" class="st1" width="262.1" height="54.7"/>
<text transform="matrix(1 0 0 1 301.849 359.7248)" class="st2 st3 st4">What do we solve?</text>
<line class="st0" x1="12.9" y1="697.1" x2="248.1" y2="697.1"/>
<line class="st0" x1="12.9" y1="704.6" x2="248.1" y2="704.6"/>
<line class="st0" x1="248.1" y1="704.6" x2="248.1" y2="1316.3"/>
<line class="st0" x1="248.1" y1="1010.5" x2="279.6" y2="1010.5"/>
<line class="st0" x1="12.9" y1="1316.3" x2="248.1" y2="1316.3"/>
<line class="st0" x1="12.9" y1="1324" x2="248.1" y2="1324"/>
<line class="st0" x1="248.1" y1="1324" x2="248.1" y2="1761.8"/>
<line class="st0" x1="248.1" y1="1542.9" x2="279.6" y2="1542.9"/>
<line class="st0" x1="12.9" y1="1761.8" x2="248.1" y2="1761.8"/>
<line class="st0" x1="12.9" y1="1769.6" x2="248.1" y2="1769.6"/>
<line class="st0" x1="248.1" y1="1769.6" x2="248.1" y2="2582.8"/>
<line class="st0" x1="248.1" y1="2176.2" x2="279.6" y2="2176.2"/>
<line class="st0" x1="12.9" y1="2582.8" x2="248.1" y2="2582.8"/>
<line class="st0" x1="12.9" y1="2589.7" x2="248.1" y2="2589.7"/>
<line class="st0" x1="248.1" y1="3134.4" x2="279.6" y2="3134.4"/>
<path class="st0" d="M248.1,2986.7"/>
<path class="st0" d="M12.9,2986.7"/>
<line class="st0" x1="248.1" y1="2589.7" x2="248.1" y2="3714.6"/>
<line class="st0" x1="12.9" y1="3714.6" x2="248.1" y2="3714.6"/>
<line class="st0" x1="12.9" y1="3723.4" x2="248.1" y2="3723.4"/>
<line class="st0" x1="248.1" y1="3723.4" x2="248.1" y2="4859.4"/>
<line class="st0" x1="248.1" y1="4291.4" x2="279.6" y2="4291.4"/>
<line class="st0" x1="12.9" y1="4859.4" x2="248.1" y2="4859.4"/>
<line class="st0" x1="12.9" y1="4867.1" x2="248.1" y2="4867.1"/>
<line class="st0" x1="248.1" y1="4867.1" x2="248.1" y2="5584.6"/>
<line class="st0" x1="248.1" y1="5225.8" x2="279.6" y2="5225.8"/>
<line class="st0" x1="12.9" y1="5584.6" x2="248.1" y2="5584.6"/>
<line class="st0" x1="12.9" y1="5591.6" x2="248.1" y2="5591.6"/>
<line class="st0" x1="248.1" y1="5591.6" x2="248.1" y2="6241.8"/>
<line class="st0" x1="248.1" y1="5916.7" x2="279.6" y2="5916.7"/>
<line class="st0" x1="12.9" y1="6241.8" x2="248.1" y2="6241.8"/>
<rect x="301.8" y="1001.4" class="st1" width="262.1" height="54.7"/>
<text transform="matrix(1 0 0 1 301.849 1016.1648)" class="st2 st3 st4">What do we solve?</text>
<rect x="301.8" y="1534.9" class="st1" width="262.1" height="54.7"/>
<text transform="matrix(1 0 0 1 301.849 1549.6848)" class="st2 st3 st4">Social proof</text>
<rect x="301.8" y="2166.4" class="st1" width="262.1" height="54.7"/>
<text transform="matrix(1 0 0 1 301.849 2181.2449)" class="st2 st3 st4">How do we solve it?</text>
<rect x="301.8" y="3124.8" class="st1" width="262.1" height="54.7"/>
<text transform="matrix(1 0 0 1 301.849 3139.6047)" class="st2 st3 st4">Who do we solve it?</text>
<rect x="301.8" y="4282.4" class="st1" width="262.1" height="54.7"/>
<text transform="matrix(1 0 0 1 301.849 4297.2051)" class="st2 st3 st4">How do we solve it?</text>
<rect x="301.8" y="5215.5" class="st1" width="262.1" height="54.7"/>
<text transform="matrix(1 0 0 1 301.849 5230.3252)" class="st2 st3 st4">Who solves ir?</text>
<rect x="301.8" y="5909" class="st1" width="262.1" height="54.7"/>
<text transform="matrix(1 0 0 1 301.849 5923.7651)" class="st2 st3 st4">What do we solve it?</text>
<rect x="32.3" y="342.9" class="st1" width="181.4" height="39.5"/>
<text transform="matrix(1 0 0 1 86.1901 360.5444)" class="st2 st3 st5">INTRO</text>
<rect x="32.3" y="1003.1" class="st1" width="181.4" height="39.5"/>
<text transform="matrix(1 0 0 1 69.6154 1020.7044)" class="st2 st3 st5">SERVICES</text>
<rect x="39.8" y="1533.9" class="st1" width="181.4" height="39.5"/>
<text transform="matrix(1 0 0 1 46.2617 1551.5044)" class="st2 st3 st5">TESTIMONIALS</text>
<rect x="32.3" y="2170" class="st1" width="181.4" height="39.5"/>
<text transform="matrix(1 0 0 1 69.6154 2187.6643)" class="st2 st3 st5">SERVICES</text>
<rect x="30.9" y="3122.6" class="st1" width="181.4" height="39.5"/>
<text transform="matrix(1 0 0 1 80.7676 3140.2244)" class="st2 st3 st5">ABOUT</text>
<rect x="39.8" y="4283" class="st1" width="181.4" height="39.5"/>
<text transform="matrix(1 0 0 1 77.1362 4300.624)" class="st2 st3 st5">SERVICES</text>
<rect x="42.8" y="5214.6" class="st1" width="181.4" height="39.5"/>
<text transform="matrix(1 0 0 1 92.6484 5232.2041)" class="st2 st3 st5">ABOUT</text>
<rect x="42.3" y="5907.6" class="st1" width="181.4" height="39.5"/>
<text transform="matrix(1 0 0 1 110.7531 5925.1841)" class="st2 st3 st5">CTA</text>
</svg>
