<?xml version="1.0" encoding="utf-8"?>
<!-- Generator: Adobe Illustrator 23.0.2, SVG Export Plug-In . SVG Version: 6.00 Build 0)  -->
<svg version="1.1" xmlns="http://www.w3.org/2000/svg" xmlns:xlink="http://www.w3.org/1999/xlink" x="0px" y="0px"
	 viewBox="0 0 1346.5 6596.2" style="enable-background:new 0 0 1346.5 6596.2;" xml:space="preserve">
<style type="text/css">
	.st0{display:none;}
	.st1{fill:none;stroke:#E6E7E8;stroke-miterlimit:10;}
	.st2{fill:#E6E7E8;}
	.st3{fill:#F4F4F5;}
</style>
<g id="Layer_1" class="st0">
	
		<image style="display:inline;overflow:visible;" width="1348" height="6599" xlink:href="../../../../../../../Fran/plannet/Designs/Peco/vista-home-reforma.jpg"  transform="matrix(1 0 0 1 0 -0.11)">
	</image>
</g>
<g id="Layer_2">
	<rect y="-0.1" class="st1" width="1346.5" height="688.5"/>
	<rect x="754.8" y="640.9" class="st2" width="47.5" height="47.5"/>
	<rect x="875.8" y="567.3" class="st2" width="192.2" height="43.2"/>
	<rect x="875.8" y="505.9" class="st3" width="96.1" height="21.6"/>
	<rect x="875.8" y="452" class="st3" width="96.1" height="21.6"/>
	<rect x="1019.9" y="452" class="st3" width="96.1" height="21.6"/>
	<rect x="875.8" y="392.5" class="st3" width="96.1" height="21.6"/>
	<rect x="875.8" y="228.4" class="st3" width="328.3" height="82.1"/>
	<rect x="538.9" y="872.6" class="st2" width="215.9" height="330"/>
	<rect x="802.3" y="872.6" class="st2" width="215.9" height="330"/>
	<rect x="1059.4" y="872.6" class="st2" width="215.9" height="330"/>
	<rect x="62.6" y="1086.4" class="st2" width="119.8" height="24.6"/>
	<rect x="62.6" y="955.5" class="st3" width="374.7" height="82.1"/>
	<rect x="871" y="1495.8" class="st3" width="374.7" height="82.1"/>
	<rect x="871" y="1610.1" class="st2" width="173.2" height="24.6"/>
	<rect x="74.4" y="1497.5" class="st2" width="48.1" height="48.1"/>
	<rect x="143.6" y="1497.5" class="st2" width="48.1" height="48.1"/>
	<rect x="74.4" y="1568.1" class="st2" width="48.1" height="48.1"/>
	<rect x="143.6" y="1568.1" class="st2" width="48.1" height="48.1"/>
	<rect x="74.4" y="1638.7" class="st2" width="48.1" height="48.1"/>
	<rect x="143.6" y="1638.7" class="st2" width="48.1" height="48.1"/>
	<rect x="249.9" y="1497.5" class="st2" width="474.6" height="189.3"/>
	<rect x="536.3" y="1891.6" class="st2" width="274.7" height="514.1"/>
	<rect x="862.5" y="1891.6" class="st2" width="274.7" height="514.1"/>
	<rect x="1186.5" y="1891.6" class="st2" width="160" height="514.1"/>
	<rect x="1081.7" y="2481.2" class="st2" width="193.7" height="45.4"/>
	<rect x="74.4" y="2197.8" class="st2" width="209.5" height="24.6"/>
	<rect x="74.4" y="2070.9" class="st3" width="374.7" height="82.1"/>
	<rect x="499.4" y="2673.5" class="st3" width="261.9" height="42.5"/>
	<rect x="499.4" y="2730.6" class="st3" width="261.9" height="21.3"/>
	<rect x="499.4" y="2766.5" class="st3" width="380.7" height="21.3"/>
	<rect x="499.4" y="2802.3" class="st3" width="153.9" height="21.3"/>
	<rect y="3165.1" class="st2" width="821.8" height="432.9"/>
	<rect x="880.1" y="3492.1" class="st2" width="166.3" height="24.6"/>
	<rect x="880.1" y="3237.8" class="st3" width="374.7" height="113.9"/>
	<rect x="880.1" y="3378.2" class="st3" width="155.9" height="21"/>
	<rect x="880.1" y="3411.4" class="st3" width="246.2" height="21"/>
	<rect x="486.7" y="3804.3" class="st3" width="374.7" height="82.1"/>
	<rect x="270.7" y="4070" class="st3" width="356.7" height="57.2"/>
	<rect x="270.7" y="4143.2" class="st3" width="356.7" height="18.5"/>
	<rect x="270.7" y="4172.7" class="st3" width="356.7" height="18.5"/>
	<rect x="270.7" y="4202.3" class="st3" width="170.9" height="18.5"/>
	<rect x="273" y="4032.1" class="st2" width="54.2" height="23.8"/>
	<rect x="734.9" y="4482.1" class="st3" width="356.7" height="57.2"/>
	<rect x="734.9" y="4555.3" class="st3" width="356.7" height="18.5"/>
	<rect x="734.9" y="4584.9" class="st3" width="356.7" height="18.5"/>
	<rect x="734.9" y="4614.4" class="st3" width="170.9" height="18.5"/>
	<rect x="737.2" y="4444.3" class="st2" width="54.2" height="23.8"/>
	<rect x="655.4" y="3984.6" class="st2" width="436.2" height="287.3"/>
	<rect x="252.9" y="4395.6" class="st2" width="436.2" height="287.3"/>
	<rect x="559.3" y="4783.4" class="st2" width="166.3" height="24.6"/>
	<rect x="197.7" y="5473.1" class="st2" width="116.5" height="12.3"/>
	<rect x="77.6" y="5073.6" class="st3" width="356.7" height="57.2"/>
	<rect x="77.6" y="5265.4" class="st3" width="356.7" height="18.5"/>
	<rect x="77.6" y="5294.9" class="st3" width="356.7" height="18.5"/>
	<rect x="77.6" y="5324.4" class="st3" width="170.9" height="18.5"/>
	<rect x="77.6" y="5207.5" class="st3" width="210.7" height="33.8"/>
	<rect x="550.4" y="4969.4" class="st2" width="796.1" height="570.4"/>
	<rect x="77.6" y="5666.1" class="st2" width="733.4" height="454.8"/>
	<rect x="886.5" y="5955.5" class="st2" width="209.5" height="24.6"/>
	<rect x="886.5" y="5828.6" class="st3" width="374.7" height="82.1"/>
	<rect x="0" y="6250.4" class="st1" width="1346.5" height="345.8"/>
	<rect x="77.6" y="6459.7" class="st2" width="88.3" height="27.6"/>
	<rect x="77.6" y="6410.9" class="st2" width="160.3" height="27.6"/>
	<rect x="77.6" y="6360.6" class="st3" width="160.3" height="36.7"/>
	<rect x="72.2" y="6325.1" class="st3" width="170.9" height="18.5"/>
	<rect x="514.5" y="6334.3" class="st3" width="69" height="18.5"/>
	<rect x="514.5" y="6368.3" class="st3" width="69" height="13.9"/>
	<rect x="514.5" y="6390.4" class="st3" width="69" height="13.9"/>
	<rect x="514.5" y="6412.5" class="st3" width="69" height="13.9"/>
	<rect x="674" y="6334.3" class="st3" width="69" height="18.5"/>
	<rect x="907.3" y="6334.3" class="st3" width="69" height="18.5"/>
	<rect x="673.2" y="6368.3" class="st3" width="127" height="13.9"/>
	<rect x="673.2" y="6390.4" class="st3" width="127" height="13.9"/>
	<rect x="907.3" y="6368.3" class="st3" width="84" height="13.9"/>
	<rect x="907.3" y="6390.4" class="st3" width="84" height="13.9"/>
	<rect x="72" y="6549.7" class="st3" width="248.9" height="13.9"/>
	<rect x="932.2" y="6552.1" class="st3" width="141.3" height="13.9"/>
	<rect x="1141.9" y="6550.2" class="st3" width="141.3" height="13.9"/>
	<line class="st1" x1="802.3" y1="688.4" x2="802.3" y2="-0.1"/>
</g>
</svg>
