<?xml version="1.0" encoding="utf-8"?>
<!-- Generator: Adobe Illustrator 23.0.2, SVG Export Plug-In . SVG Version: 6.00 Build 0)  -->
<svg version="1.1" id="Layer_1" xmlns="http://www.w3.org/2000/svg" xmlns:xlink="http://www.w3.org/1999/xlink" x="0px" y="0px"
	 viewBox="0 0 800 800" style="enable-background:new 0 0 800 800;" xml:space="preserve">
<style type="text/css">
<!-- @import url('https://fonts.googleapis.com/css2?family=Catamaran:wght@100;200;300;400;500;600;700;800;900&display=swap'); -->

	.st0{fill:none;}
	body{font-family:'Catamaran';}
	.st2{font-size:27px;}
	.st3{fill:#F3DDA2;}
	.st4{fill:#D1D3D4;}
</style>
<image style="display:none;overflow:visible;" width="287" height="289" xlink:href="4E29B317.jpg"  transform="matrix(2.597 0 0 2.597 32.8961 29.3762)">
</image>
<rect x="311.8" y="81.4" class="st0" width="164.9" height="41.6"/>
<text transform="matrix(1 0 0 1 342.0288 100.5728)" class="st1 st2">ELEGANT</text>
<rect x="311.8" y="707.3" class="st0" width="164.9" height="41.6"/>
<text transform="matrix(1 0 0 1 333.7666 726.4429)" class="st1 st2">ORDINARY</text>
<rect x="78.1" y="324.7" class="st0" width="41.6" height="164.9"/>
<text transform="matrix(0 -1 1 0 97.1448 464.0008)" class="st1 st2">AMATEUR</text>
<rect x="695.3" y="307.2" class="st0" width="41.6" height="199.9"/>
<text transform="matrix(0 -1 1 0 714.4325 493.5103)" class="st1 st2">PROFESSIONAL</text>
<rect x="393.3" y="138.5" class="st3" width="8" height="540"/>
<rect x="391.5" y="137.2" transform="matrix(6.123234e-17 -1 1 6.123234e-17 -11.6771 802.7037)" class="st3" width="8" height="540"/>
<circle class="st4" cx="298.4" cy="176.8" r="8.4"/>
<circle class="st4" cx="329.6" cy="166.1" r="8.4"/>
<circle class="st4" cx="361.8" cy="159.6" r="8.4"/>
<circle class="st4" cx="427.6" cy="159.3" r="8.4"/>
<circle class="st4" cx="459.9" cy="165.7" r="8.4"/>
<circle class="st4" cx="491.1" cy="176.2" r="8.4"/>
<circle class="st4" cx="520.7" cy="190.7" r="8.4"/>
<circle class="st3" cx="548.1" cy="209" r="8.4"/>
<circle class="st4" cx="572.9" cy="230.7" r="8.4"/>
<circle class="st4" cx="594.7" cy="255.4" r="8.4"/>
<circle class="st4" cx="613" cy="282.8" r="8.4"/>
<circle class="st4" cx="627.6" cy="312.3" r="8.4"/>
<circle class="st4" cx="638.1" cy="343.5" r="8.4"/>
<circle class="st4" cx="644.6" cy="375.8" r="8.4"/>
<circle class="st4" cx="644.5" cy="441.6" r="8.4"/>
<circle class="st4" cx="638" cy="473.9" r="8.4"/>
<circle class="st4" cx="627.4" cy="505.1" r="8.4"/>
<circle class="st4" cx="612.7" cy="534.6" r="8.4"/>
<circle class="st4" cx="594.4" cy="561.9" r="8.4"/>
<circle class="st4" cx="572.6" cy="586.6" r="8.4"/>
<circle class="st4" cx="547.7" cy="608.3" r="8.4"/>
<circle class="st4" cx="520.3" cy="626.5" r="8.4"/>
<circle class="st4" cx="490.7" cy="640.9" r="8.4"/>
<circle class="st4" cx="459.4" cy="651.4" r="8.4"/>
<circle class="st4" cx="427.1" cy="657.6" r="8.4"/>
<circle class="st4" cx="361.4" cy="657.3" r="8.4"/>
<circle class="st4" cx="329.1" cy="650.7" r="8.4"/>
<circle class="st4" cx="298" cy="639.9" r="8.4"/>
<circle class="st4" cx="268.5" cy="625.2" r="8.4"/>
<circle class="st4" cx="241.2" cy="606.7" r="8.4"/>
<circle class="st4" cx="216.6" cy="584.8" r="8.4"/>
<circle class="st4" cx="195.1" cy="559.9" r="8.4"/>
<circle class="st4" cx="177" cy="532.3" r="8.4"/>
<circle class="st4" cx="162.7" cy="502.7" r="8.4"/>
<circle class="st4" cx="152.3" cy="471.4" r="8.4"/>
<circle class="st4" cx="146.2" cy="439" r="8.4"/>
<circle class="st4" cx="146.8" cy="373.3" r="8.4"/>
<circle class="st4" cx="153.6" cy="341" r="8.4"/>
<circle class="st4" cx="164.5" cy="309.9" r="8.4"/>
<circle class="st4" cx="179.4" cy="280.5" r="8.4"/>
<circle class="st4" cx="198" cy="253.4" r="8.4"/>
<circle class="st4" cx="219.9" cy="228.8" r="8.4"/>
<circle class="st4" cx="245" cy="207.4" r="8.4"/>
<circle class="st4" cx="272.6" cy="189.4" r="8.4"/>
<circle class="st4" cx="361.8" cy="200.5" r="8.4"/>
<circle class="st4" cx="329.6" cy="208.4" r="8.4"/>
<circle class="st4" cx="299" cy="221.2" r="8.4"/>
<circle class="st4" cx="270.8" cy="238.7" r="8.4"/>
<circle class="st4" cx="245.6" cy="260.5" r="8.4"/>
<circle class="st4" cx="224.2" cy="285.8" r="8.4"/>
<circle class="st4" cx="207.1" cy="314.3" r="8.4"/>
<circle class="st4" cx="194.6" cy="345.1" r="8.4"/>
<circle class="st4" cx="187.2" cy="377.4" r="8.4"/>
<circle class="st4" cx="187.8" cy="443.6" r="8.4"/>
<circle class="st4" cx="195.9" cy="475.8" r="8.4"/>
<circle class="st4" cx="209" cy="506.3" r="8.4"/>
<circle class="st4" cx="226.7" cy="534.4" r="8.4"/>
<circle class="st4" cx="248.6" cy="559.4" r="8.4"/>
<circle class="st4" cx="274.1" cy="580.6" r="8.4"/>
<circle class="st4" cx="302.6" cy="597.5" r="8.4"/>
<circle class="st4" cx="333.5" cy="609.8" r="8.4"/>
<circle class="st4" cx="365.9" cy="617" r="8.4"/>
<circle class="st4" cx="426.9" cy="614.8" r="8.4"/>
<circle class="st4" cx="459.2" cy="607.3" r="8.4"/>
<circle class="st4" cx="490" cy="594.8" r="8.4"/>
<circle class="st4" cx="518.4" cy="577.6" r="8.4"/>
<circle class="st4" cx="543.8" cy="556.2" r="8.4"/>
<circle class="st4" cx="565.4" cy="531.1" r="8.4"/>
<circle class="st4" cx="582.9" cy="502.9" r="8.4"/>
<circle class="st4" cx="595.7" cy="472.2" r="8.4"/>
<circle class="st4" cx="603.6" cy="440" r="8.4"/>
<circle class="st4" cx="603.7" cy="373.8" r="8.4"/>
<circle class="st4" cx="596" cy="341.5" r="8.4"/>
<circle class="st4" cx="583.3" cy="310.8" r="8.4"/>
<circle class="st4" cx="565.9" cy="282.5" r="8.4"/>
<circle class="st4" cx="544.3" cy="257.3" r="8.4"/>
<circle class="st4" cx="519" cy="235.8" r="8.4"/>
<circle class="st4" cx="490.6" cy="218.5" r="8.4"/>
<circle class="st4" cx="459.9" cy="205.9" r="8.4"/>
<circle class="st4" cx="427.6" cy="198.3" r="8.4"/>
<circle class="st4" cx="361.8" cy="241.5" r="8.4"/>
<circle class="st4" cx="361.4" cy="284.4" r="8.4"/>
<circle class="st4" cx="330.9" cy="297.1" r="8.4"/>
<circle class="st4" cx="304.7" cy="317.2" r="8.4"/>
<circle class="st4" cx="284.5" cy="343.3" r="8.4"/>
<circle class="st4" cx="271.6" cy="373.6" r="8.4"/>
<circle class="st4" cx="329.9" cy="251.3" r="8.4"/>
<circle class="st4" cx="300.6" cy="267.1" r="8.4"/>
<circle class="st4" cx="274.8" cy="288.3" r="8.4"/>
<circle class="st4" cx="253.7" cy="314.1" r="8.4"/>
<circle class="st4" cx="238.1" cy="343.5" r="8.4"/>
<circle class="st4" cx="228.4" cy="375.5" r="8.4"/>
<circle class="st4" cx="228.5" cy="441.8" r="8.4"/>
<circle class="st4" cx="238.2" cy="473.8" r="8.4"/>
<circle class="st4" cx="253.9" cy="503.2" r="8.4"/>
<circle class="st4" cx="275.1" cy="528.9" r="8.4"/>
<circle class="st4" cx="300.9" cy="550.1" r="8.4"/>
<circle class="st4" cx="330.3" cy="565.8" r="8.4"/>
<circle class="st4" cx="362.2" cy="575.5" r="8.4"/>
<circle class="st4" cx="428.6" cy="575.6" r="8.4"/>
<circle class="st4" cx="460.5" cy="565.9" r="8.4"/>
<circle class="st4" cx="490" cy="550.2" r="8.4"/>
<circle class="st4" cx="515.8" cy="529.1" r="8.4"/>
<circle class="st4" cx="537" cy="503.3" r="8.4"/>
<circle class="st4" cx="552.7" cy="474" r="8.4"/>
<circle class="st4" cx="562.5" cy="442.1" r="8.4"/>
<circle class="st4" cx="562.7" cy="375.7" r="8.4"/>
<circle class="st4" cx="553.1" cy="343.7" r="8.4"/>
<circle class="st4" cx="537.4" cy="314.3" r="8.4"/>
<circle class="st4" cx="516.4" cy="288.4" r="8.4"/>
<circle class="st4" cx="490.6" cy="267.2" r="8.4"/>
<circle class="st4" cx="461.3" cy="251.4" r="8.4"/>
<circle class="st4" cx="429.4" cy="241.5" r="8.4"/>
<circle class="st4" cx="361.4" cy="327.2" r="8.4"/>
<circle class="st4" cx="332.4" cy="346.9" r="8.4"/>
<circle class="st4" cx="313.5" cy="376.3" r="8.4"/>
<circle class="st4" cx="271.7" cy="443.5" r="8.4"/>
<circle class="st4" cx="284.5" cy="473.9" r="8.4"/>
<circle class="st4" cx="304.6" cy="500.1" r="8.4"/>
<circle class="st4" cx="330.6" cy="520.3" r="8.4"/>
<circle class="st4" cx="361" cy="533.2" r="8.4"/>
<circle class="st4" cx="432.2" cy="534.4" r="8.4"/>
<circle class="st4" cx="462.6" cy="521.7" r="8.4"/>
<circle class="st4" cx="488.8" cy="501.6" r="8.4"/>
<circle class="st4" cx="509" cy="475.5" r="8.4"/>
<circle class="st4" cx="521.9" cy="445.1" r="8.4"/>
<circle class="st4" cx="520.7" cy="373.6" r="8.4"/>
<circle class="st4" cx="507.9" cy="343.2" r="8.4"/>
<circle class="st4" cx="487.9" cy="317" r="8.4"/>
<circle class="st4" cx="461.8" cy="296.8" r="8.4"/>
<circle class="st4" cx="431.4" cy="283.8" r="8.4"/>
<circle class="st4" cx="312.5" cy="444.7" r="8.4"/>
<circle class="st4" cx="332.2" cy="473.6" r="8.4"/>
<circle class="st4" cx="361.6" cy="492.6" r="8.4"/>
<circle class="st4" cx="429.8" cy="491.6" r="8.4"/>
<circle class="st4" cx="458.7" cy="471.9" r="8.4"/>
<circle class="st4" cx="477.7" cy="442.5" r="8.4"/>
<circle class="st4" cx="478.7" cy="374" r="8.4"/>
<circle class="st4" cx="459" cy="345.1" r="8.4"/>
<circle class="st4" cx="429.6" cy="326.1" r="8.4"/>
</svg>
